<?xml version="1.0" encoding="utf-8" ?>
<svg xmlns="http://www.w3.org/2000/svg" xmlns:xlink="http://www.w3.org/1999/xlink" width="2000" height="2000">
	<path fill="#367480" transform="matrix(1.95312 0 0 1.95312 1.52588e-05 0)" d="M0 0L1024 0L1024 1024L0 1024L0 0Z"/>
	<path fill="#FB9D1C" transform="matrix(1.95312 0 0 1.95312 1.52588e-05 0)" d="M495.597 531.261C508.346 530.89 521.182 531.166 533.94 531.16C533.926 535.003 534.934 544.478 533.419 547.46L532.125 547.669L493.518 547.708C494.423 542.898 492.025 535.665 494.084 531.581L495.597 531.261Z"/>
	<path fill="#FDFDFD" transform="matrix(1.95312 0 0 1.95312 1.52588e-05 0)" d="M570.565 297.093C571.178 297.006 571.792 296.928 572.411 296.905C576.157 296.771 580.464 298.31 583.215 300.864C586.158 303.599 587.785 307.576 587.902 311.566Q587.918 312.343 587.854 313.118Q587.79 313.892 587.647 314.656Q587.504 315.42 587.284 316.166Q587.063 316.911 586.768 317.63Q586.472 318.349 586.105 319.034Q585.737 319.719 585.302 320.362Q584.866 321.006 584.367 321.602Q583.868 322.198 583.31 322.739C579.185 326.767 574.864 327.052 569.452 327.039Q557.615 337.732 546.224 348.898L542.854 352.137L531.51 340.683C537.582 333.664 553.238 321.326 557.274 315.128C559.361 311.925 557.711 307.037 560.071 303.411C562.494 299.688 566.376 297.928 570.565 297.093Z"/>
	<path fill="#FDFDFD" transform="matrix(1.95312 0 0 1.95312 1.52588e-05 0)" d="M454.054 296.548C457.567 296.538 461.718 297.656 464.47 299.899C469.254 303.798 469.822 309.412 470.314 315.118L469.758 314.873C473.617 318.737 477.475 322.639 481.48 326.352C486.315 330.834 492.696 335.45 496.137 341.131C492.774 344.441 488.994 349.558 484.951 351.854L484.176 351.432C480.863 347.892 477.026 344.838 473.506 341.505C468.415 336.684 463.633 331.34 458.113 327.02L450.591 326.915C446.167 324.509 442.275 321.461 440.521 316.55Q440.28 315.875 440.11 315.178Q439.94 314.482 439.843 313.772Q439.746 313.062 439.723 312.345Q439.7 311.629 439.75 310.914Q439.801 310.199 439.926 309.493Q440.05 308.787 440.247 308.097Q440.443 307.408 440.71 306.743Q440.977 306.077 441.311 305.443C444.061 300.152 448.693 298.204 454.054 296.548Z"/>
	<path fill="#FDFDFD" transform="matrix(1.95312 0 0 1.95312 1.52588e-05 0)" d="M508.755 269.659C510.26 269.558 511.769 269.451 513.276 269.415C517.534 269.312 521.603 270.545 524.642 273.651C527.494 276.565 528.798 280.364 528.674 284.407C528.504 289.968 525.76 293.615 521.953 297.294C521.798 309.812 522.601 322.556 521.803 335.037C520.715 336.069 520.088 335.844 518.623 335.929C514.24 336.116 509.979 336.523 505.576 336.432C504.315 323.66 505.262 310.126 505.127 297.263C503.541 295.775 501.965 294.315 500.83 292.435C498.634 288.799 497.861 284.318 499.026 280.202C500.521 274.917 504.204 272.18 508.755 269.659Z"/>
	<path fill="#FDFDFD" transform="matrix(1.95312 0 0 1.95312 1.52588e-05 0)" d="M457.097 688.121L462.149 687.828Q462.372 699.25 462.062 710.669C460.53 710.468 458.98 710.257 457.433 710.214C452.654 710.081 447.705 711.59 444.255 714.996C441.794 717.426 440.292 720.63 439.579 723.987C437.819 732.264 438.985 752.836 439.017 762.427L416.418 762.458L416.385 754.984L416.302 689.819L439.082 689.771Q438.919 697.635 439.085 705.5C440.014 702.351 440.882 699.31 442.709 696.536C446.224 691.199 451.074 689.266 457.097 688.121Z"/>
	<path fill="#FDFDFD" transform="matrix(1.95312 0 0 1.95312 1.52588e-05 0)" d="M713.886 559.499L734.418 559.405C734.23 565.036 734.251 570.691 734.186 576.326L748.314 576.315L748.176 592.794Q741.209 592.626 734.242 592.767C734.459 600.66 733.084 611.67 734.3 619.047C734.683 621.37 735.568 623.43 737.622 624.721C740.86 626.758 744.469 625.558 747.879 624.716L748.117 638.625C748.15 640.079 748.29 640.32 747.457 641.48C744.459 643.053 741.51 643.175 738.191 643.322C731.531 643.617 724.148 643.257 719.048 638.345C716.645 636.031 715.177 633.016 714.478 629.775C712.737 621.703 713.942 601.979 713.825 592.705C710.388 592.665 706.934 592.804 703.496 592.871L703.473 576.407C706.985 576.35 710.508 576.414 714.021 576.42L713.886 559.499Z"/>
	<path fill="#FB9D1C" transform="matrix(1.95312 0 0 1.95312 1.52588e-05 0)" d="M736.103 663.438L759.986 663.41L759.974 762.431C752.103 762.265 744.194 762.454 736.32 762.481C736.044 751.984 736.415 741.385 736.418 730.877Q736.492 697.156 736.103 663.438Z"/>
	<path fill="#FDFDFD" transform="matrix(1.95312 0 0 1.95312 1.52588e-05 0)" d="M253.505 553.875C278.177 553.261 303.015 553.865 327.707 553.792C327.522 559.977 327.648 566.179 327.682 572.367L300.987 572.325L300.993 615.25L300.93 641.978L280.037 641.998L280.068 572.416L253.502 572.405C253.572 566.23 253.516 560.051 253.505 553.875Z"/>
	<path fill="#FDFDFD" transform="matrix(1.95312 0 0 1.95312 1.52588e-05 0)" d="M482.457 576.36L503.044 576.311C503.04 585.476 501.917 611.245 503.795 618.889C504.16 620.374 505.034 621.782 506.052 622.909C507.925 624.983 510.546 625.744 513.269 625.835C515.902 625.923 518.35 625.221 520.276 623.372C522.088 621.633 523.173 619.273 523.71 616.847C525.387 609.259 524.202 585.434 524.159 576.441C531.052 576.322 537.959 576.384 544.854 576.359L544.851 602.875L544.928 641.859C538.028 642.005 531.109 641.91 524.207 641.919C524.144 638.436 524.243 634.939 524.278 631.455C523.19 633.079 522.111 634.794 520.805 636.252C516.634 640.914 510.882 643.242 504.715 643.513C499.022 643.763 493.275 642.661 489.036 638.574C486.014 635.66 484.354 631.793 483.46 627.751C481.867 620.547 482.454 612.603 482.461 605.256L482.457 576.36Z"/>
	<path fill="#FDFDFD" transform="matrix(1.95312 0 0 1.95312 1.52588e-05 0)" d="M335.927 549.996L356.276 549.965C356.166 562.157 356.776 574.437 356.089 586.608C357.394 584.884 358.656 583.067 360.128 581.482C364.125 577.177 369.365 574.974 375.19 574.743C381.089 574.51 386.941 575.895 391.303 580.095C394.383 583.06 396.13 586.852 397.102 590.967C398.778 598.064 398.107 606.048 398.095 613.308L398.014 641.992C391.228 641.898 384.429 641.992 377.641 642.002L377.682 624.944C377.731 617.372 379.453 601.458 374.534 595.421C373.016 593.558 371.001 592.513 368.596 592.423C365.757 592.317 361.835 593.446 359.75 595.425C358.308 596.793 357.195 598.598 356.719 600.537C355.007 607.522 356.118 633.08 356.074 641.899C349.359 642.002 342.636 641.972 335.919 642.006C336.261 611.35 335.932 580.655 335.927 549.996Z"/>
	<path fill="#FDFDFD" transform="matrix(1.95312 0 0 1.95312 1.52588e-05 0)" d="M633.438 549.995L654.04 549.998L653.97 586.976C655.062 585.194 656.153 583.28 657.518 581.69C661.647 576.884 667.65 575.049 673.798 574.838C679.468 574.644 685.246 576.122 689.368 580.201C692.17 582.974 693.829 586.617 694.703 590.422C696.349 597.584 695.585 605.677 695.562 613.002L695.49 641.899L675.307 642.053C675.163 636.126 675.212 630.18 675.167 624.25C675.17 616.553 677.069 600.991 671.957 595.19Q671.64 594.827 671.287 594.499Q670.933 594.171 670.548 593.883Q670.162 593.594 669.748 593.348Q669.333 593.101 668.896 592.9Q668.458 592.698 668.001 592.544Q667.545 592.39 667.075 592.285Q666.604 592.18 666.126 592.125Q665.647 592.069 665.165 592.065C662.412 592.06 659.711 593.39 657.788 595.314C655.783 597.319 654.626 599.94 654.083 602.694C653.047 607.949 653.841 613.922 653.887 619.282C653.952 626.849 653.871 634.422 653.838 641.989L633.502 642.005L633.438 549.995Z"/>
	<path fill="#FDFDFD" transform="matrix(1.95312 0 0 1.95312 1.52588e-05 0)" d="M435.306 575.116C443.352 574.511 450.919 575.304 458.006 579.467C465.546 583.897 470.365 591.526 472.399 599.909C474.736 609.534 473.371 620.147 468.058 628.576C462.847 636.841 455.778 640.687 446.434 642.865Q445.644 643.016 444.848 643.13Q444.051 643.244 443.25 643.321Q442.45 643.398 441.646 643.437Q440.843 643.476 440.038 643.477Q439.234 643.478 438.43 643.442Q437.626 643.405 436.825 643.331Q436.024 643.257 435.227 643.146Q434.431 643.034 433.64 642.886Q432.849 642.737 432.067 642.551Q431.284 642.366 430.511 642.144Q429.738 641.922 428.976 641.664Q428.214 641.406 427.465 641.112Q426.716 640.818 425.981 640.49Q425.247 640.162 424.528 639.799Q423.81 639.437 423.11 639.042Q422.409 638.646 421.728 638.218C414.407 633.547 409.737 626.143 407.938 617.711C405.859 607.962 407.438 596.809 413.039 588.46C418.456 580.385 426.078 576.857 435.306 575.116Z"/>
	<path fill="#367480" transform="matrix(1.95312 0 0 1.95312 1.52588e-05 0)" d="M436.998 592.567C438.872 592.466 441.068 592.217 442.899 592.678C445.951 593.445 448.668 595.844 450.14 598.575C452.907 603.706 453.217 611.267 451.387 616.786C449.904 621.257 447.616 623.886 443.421 625.916C441.434 626.041 439.208 626.274 437.283 625.687C434.048 624.7 431.484 622.337 429.96 619.351C427.437 614.407 427.145 607.163 428.844 601.911C430.304 597.399 432.847 594.709 436.998 592.567Z"/>
	<path fill="#FDFDFD" transform="matrix(1.95312 0 0 1.95312 1.52588e-05 0)" d="M580.934 688.161C581.955 688.005 582.975 687.977 584.005 687.939C593.887 687.57 603.249 689.591 610.63 696.597C620.555 706.017 621.968 719.009 622.25 731.932L572.768 731.973C573.808 737.123 575.136 741.042 579.843 744.032C583.44 746.317 588.063 747.183 592.218 746.141C596.066 745.176 598.847 742.803 600.861 739.474L620.469 739.585C621.142 739.798 620.81 739.59 621.285 740.429C620.819 742.998 619.653 745.556 618.314 747.792C613.303 756.156 605.92 761.362 596.326 763.432C586.212 765.614 573.73 763.395 565.2 757.497C557.424 752.12 552.827 743.919 551.261 734.697C549.341 723.389 551.126 710.912 557.944 701.475C563.57 693.688 571.606 689.677 580.934 688.161Z"/>
	<path fill="#367480" transform="matrix(1.95312 0 0 1.95312 1.52588e-05 0)" d="M583.146 705.061C587.027 704.741 591.14 704.811 594.476 707.086C598.443 709.791 599.401 714.072 600.323 718.46C596.678 718.338 593.022 718.396 589.375 718.405L572.994 718.488C573.292 716.304 573.657 714.107 574.601 712.095C576.42 708.219 579.188 706.393 583.146 705.061Z"/>
	<path fill="#FDFDFD" transform="matrix(1.95312 0 0 1.95312 1.52588e-05 0)" d="M308.597 663.245L327.817 663.241C327.638 670.226 327.713 677.226 327.71 684.213Q306.504 684.421 285.297 684.222L285.225 705.052L323.772 705.006C323.874 711.723 323.83 718.449 323.853 725.167C318.624 725.244 286.724 724.519 285.084 726.087L285.176 762.478C277.298 762.378 269.413 762.437 261.535 762.434L261.514 663.383C277.184 663.017 292.916 663.333 308.597 663.245Z"/>
	<path fill="#FDFDFD" transform="matrix(1.95312 0 0 1.95312 1.52588e-05 0)" d="M363.31 688.164C372.203 686.613 382.921 689.078 390.273 694.253C398.23 699.854 403.025 708.577 404.554 718.083C406.326 729.097 404.363 740.882 397.708 750.004C391.912 757.948 383.222 762.405 373.619 763.832C363.748 764.748 354.304 763.164 346.093 757.299C338.017 751.529 333.381 742.659 331.89 732.959C330.252 722.304 332.179 710.374 338.697 701.591C344.802 693.364 353.43 689.661 363.31 688.164Z"/>
	<path fill="#367480" transform="matrix(1.95312 0 0 1.95312 1.52588e-05 0)" d="M365.14 707.555C368.082 707.282 370.887 707.184 373.592 708.567C377.145 710.383 379.407 713.685 380.634 717.402C382.599 723.351 382.38 731.706 379.511 737.273C377.589 741.003 375.02 743.114 371.088 744.455C368.664 744.795 366.312 744.856 363.985 743.996C360.298 742.635 357.704 739.737 356.189 736.174C353.708 730.34 353.577 721.793 356.031 715.979C357.915 711.516 360.707 709.246 365.14 707.555Z"/>
	<path fill="#FDFDFD" transform="matrix(1.95312 0 0 1.95312 1.52588e-05 0)" d="M578.078 575.123C580.881 574.861 583.672 574.775 586.464 575.225C592.812 576.25 596.736 579.786 600.385 584.777C600.098 582.054 600.124 579.289 600.062 576.552L619.998 576.253C619.831 590.313 619.946 604.393 619.963 618.455C619.974 627.7 620.897 637.77 618.766 646.807C617.071 653.99 613.014 660.172 606.614 664C597.609 669.386 584.845 670.007 574.872 667.4C567.307 665.423 561.474 661.423 557.508 654.605C556.213 652.049 555.462 649.279 554.628 646.548C561.302 646.478 568.015 645.811 574.665 645.28C575.252 646.814 575.904 648.185 577.094 649.356C579.802 652.019 583.745 653.174 587.482 652.998C590.937 652.835 594.318 651.477 596.659 648.88C601.401 643.62 600.214 635.35 600.032 628.803C597.235 633.736 593.461 637.607 587.827 639.049C581.34 640.709 573.338 639.542 567.67 636.089C561.231 632.167 557.512 625.672 555.761 618.514C553.23 608.163 554.435 596.159 560.164 587.022C564.457 580.175 570.412 576.856 578.078 575.123Z"/>
	<path fill="#367480" transform="matrix(1.95312 0 0 1.95312 1.52588e-05 0)" d="M585.073 592.556C587.565 592.41 590.091 592.288 592.464 593.206C595.45 594.361 597.761 596.801 599.053 599.696C601.116 604.321 601.208 610.637 599.248 615.309C597.557 619.34 595.046 621.236 591.086 622.814C588.768 622.996 586.464 623.149 584.236 622.361C581.082 621.244 578.611 618.768 577.207 615.766C575.133 611.334 574.954 605.34 576.72 600.779C578.37 596.518 580.941 594.273 585.073 592.556Z"/>
	<path fill="#FB9D1C" transform="matrix(1.95312 0 0 1.95312 1.52588e-05 0)" d="M664.754 663.49Q678.424 663.376 692.095 663.455C694.875 672.812 698.373 681.995 701.644 691.19L716.73 733.306C720.24 742.964 723.995 752.675 726.855 762.545C718.481 762.415 710.094 762.509 701.719 762.509C700.367 755.973 697.886 749.212 695.797 742.854C694.445 742.06 693.586 742.321 692.042 742.386C681.896 742.413 671.606 742.686 661.481 742.071C659.272 748.744 656.685 755.588 655.273 762.476L629.906 762.487L652.442 699.484C656.635 687.833 662.153 675.591 664.754 663.49Z"/>
	<path fill="#367480" transform="matrix(1.95312 0 0 1.95312 1.52588e-05 0)" d="M678.31 688.818C680.661 691.22 688.425 718.016 689.995 722.963L680.625 722.965L666.957 723.007C670.794 711.626 674.364 700.165 678.31 688.818Z"/>
	<path fill="#FDFDFD" transform="matrix(1.95312 0 0 1.95312 1.52588e-05 0)" d="M492.661 688.107C496.078 687.89 499.379 687.756 502.761 688.429C509.302 689.73 513.41 693.199 516.907 698.651C516.64 695.735 516.618 692.804 516.548 689.878C524.168 689.893 531.78 689.926 539.395 689.637C539.122 705.129 539.258 720.655 539.271 736.15C539.279 747.022 540.627 759.666 537.793 770.204C535.684 778.046 531.103 784.344 523.961 788.364C513.254 794.39 499.059 794.957 487.43 791.56C478.687 789.007 472.781 784.204 468.408 776.161C467.409 773.874 466.626 771.467 465.774 769.121C473.005 768.85 480.338 767.885 487.545 767.157C488.141 768.245 488.747 769.346 489.532 770.312C492.234 773.639 496.581 775.374 500.791 775.59C504.792 775.795 508.828 774.838 511.81 772.042C517.804 766.424 516.9 756.191 517.038 748.656C513.536 754.319 509.222 758.488 502.588 760.155C495.456 761.947 487.192 760.368 480.93 756.621C473.663 752.273 469.31 744.988 467.395 736.908C464.677 725.436 466.048 711.64 472.419 701.554C477.282 693.855 483.881 690.105 492.661 688.107Z"/>
	<path fill="#367480" transform="matrix(1.95312 0 0 1.95312 1.52588e-05 0)" d="M499.514 707.599C502.66 707.266 505.718 707.045 508.66 708.393C512.189 710.01 514.61 713.017 515.906 716.634C517.868 722.106 517.676 729.545 515.054 734.763C513.215 738.424 510.509 740.617 506.701 741.957C504.229 742.359 501.557 742.422 499.155 741.613C495.707 740.453 493.089 737.875 491.545 734.622C489.113 729.493 488.954 722.252 490.847 716.918C492.516 712.212 495.157 709.783 499.514 707.599Z"/>
	<path fill="#FB9D1C" transform="matrix(1.95312 0 0 1.95312 1.52588e-05 0)" d="M545.212 238.637C559.919 238.087 572.198 239.845 584.872 247.86C601.311 258.255 608.156 272.266 612.287 290.637C623.905 297.346 632.973 303.682 640.194 315.335C650.265 331.589 651.163 347.783 646.934 365.98C649.302 367.162 651.746 368.358 653.962 369.808C660.343 373.985 664.214 380.144 665.669 387.577C667.994 399.455 662.874 411.651 656.337 421.313C635.626 451.927 595.429 469.525 560.132 476.188C559.883 470.729 560.031 465.224 560.035 459.759C570.874 458.657 582.002 454.031 592.104 450.081C606.543 444.565 620.551 435.682 631.73 425.071C640.015 417.208 650.57 405.5 650.577 393.335C650.579 390.333 649.586 386.98 647.386 384.845C645.401 382.918 642.223 382.284 639.585 381.921C633.662 381.104 627.201 381.594 621.217 381.604L588.487 381.693L588.487 366.044C602.449 365.997 616.466 366.275 630.419 365.9Q630.918 364.626 631.32 363.319C635.227 350.557 634.33 337.752 628.012 325.909C621.361 313.44 610.186 306.694 597.026 302.701C597.154 293.675 595.835 285.502 591.564 277.427C586.148 267.191 576.167 259.579 565.162 256.263C552.116 252.332 539.871 254.741 528.053 261.079C524.696 257.419 521.914 252.996 518.673 249.173C527.323 243.564 535.112 240.613 545.212 238.637Z"/>
	<path fill="#FB9D1C" transform="matrix(1.95312 0 0 1.95312 1.52588e-05 0)" d="M476.07 238.229C488.28 238 498.99 242.339 508.985 249.037C506.057 253.119 502.851 256.817 500.146 261.086C492.573 256.931 484.024 254.055 475.301 254.187Q474.184 254.213 473.069 254.292Q471.955 254.372 470.846 254.506Q469.737 254.64 468.635 254.827Q467.534 255.015 466.443 255.256Q465.352 255.496 464.273 255.79Q463.195 256.083 462.133 256.429Q461.07 256.775 460.026 257.171Q458.981 257.568 457.957 258.015Q456.933 258.462 455.932 258.958Q454.931 259.454 453.955 259.998Q452.979 260.543 452.031 261.134Q451.083 261.725 450.165 262.361Q449.246 262.997 448.36 263.677Q447.473 264.358 446.621 265.08Q445.769 265.802 444.952 266.565Q444.136 267.328 443.358 268.13C433.759 277.999 430.759 289.224 431.021 302.658C424.357 304.608 418.278 307.032 412.686 311.228C403.041 318.464 396.088 329.731 394.441 341.735C393.56 348.156 393.678 359.975 397.696 365.23C401.668 367.044 432.716 366.008 439.541 366.07L439.501 381.783C429.336 381.403 391.414 380.485 383.875 382.78C381.474 383.511 379.951 384.99 378.847 387.217C376.661 391.627 377.23 396.96 378.773 401.483C385.547 421.334 411.204 437.904 429.016 446.969C440.829 453.264 454.567 456.755 467.466 459.917L467.425 476.277Q460.718 475.195 454.142 473.492Q447.565 471.79 441.176 469.482C412.937 459.488 379.12 440.07 365.873 411.941C361.517 402.693 359.803 392.418 363.551 382.626C366.872 373.948 372.939 369.963 380.954 366.226C377.106 354.998 377.503 341.713 380.842 330.414C386.486 311.313 398.708 299.847 415.734 290.702C417.974 278.047 422.858 266.693 431.721 257.219C443.509 244.617 459.065 238.758 476.07 238.229Z"/>
	<path fill="#FDFDFD" transform="matrix(1.95312 0 0 1.95312 1.52588e-05 0)" d="M557.464 365.786C564.182 365.423 570.716 365.271 577.417 366.098C577.478 377.641 577.831 389.289 577.443 400.822C576.968 414.951 571.853 429.982 560.14 438.74C556.479 441.477 551.956 443.125 548.668 446.347C543.599 451.314 544.226 457.962 544.233 464.465C544.239 469.616 544.116 474.875 544.884 479.982C547.099 494.711 555.651 508.096 566.004 518.437C565.515 528.207 565.959 538.013 565.586 547.795Q557.486 547.928 549.387 547.783C549.013 540.124 549.121 532.404 549.054 524.734C545.89 521.215 542.735 517.666 540.357 513.555L487.349 513.579C485.007 517.255 482.107 520.647 479.423 524.08C477.714 526.611 478.662 543.389 478.485 547.535C473.084 548.213 467.498 547.904 462.065 547.805C461.877 538.471 462.65 528.749 461.329 519.494C478.005 501.355 483.726 488.004 483.585 463.494C483.454 440.812 475.881 447.45 463.507 434.998C450.798 422.21 450.408 406.434 450.439 389.612L450.511 365.991C486.155 365.51 521.817 366.073 557.464 365.786Z"/>
	<path fill="#367480" transform="matrix(1.95312 0 0 1.95312 1.52588e-05 0)" d="M467.032 381.972C498.276 381.519 529.653 381.734 560.901 382.029C560.942 387.817 561.058 393.628 560.877 399.414C560.557 409.623 557.428 421.23 548.511 427.304C544.374 430.122 539.732 432.08 536.111 435.623C525.961 445.556 527.545 460.504 527.621 473.426C527.92 481.672 529.47 489.155 532.216 496.932C520.12 497.459 507.838 497.107 495.728 496.999C499.28 484.838 500.433 474.104 500.324 461.501C500.224 449.975 497.645 439.029 487.414 432.217C483.564 429.653 479.247 427.573 475.976 424.246C464.774 412.847 466.891 396.561 467.032 381.972Z"/>
</svg>
