<?xml version="1.0" standalone="no"?>
<!DOCTYPE svg PUBLIC "-//W3C//DTD SVG 20010904//EN"
 "http://www.w3.org/TR/2001/REC-SVG-20010904/DTD/svg10.dtd">
<svg version="1.0" xmlns="http://www.w3.org/2000/svg"
 width="1024.000000pt" height="1024.000000pt" viewBox="0 0 1024.000000 1024.000000"
 preserveAspectRatio="xMidYMid meet">
<metadata>
Created by potrace 1.15, written by Peter Selinger 2001-2017
</metadata>
<g transform="translate(0.000000,1024.000000) scale(0.100000,-0.100000)"
fill="#000000" stroke="none">
<path d="M0 5120 l0 -5120 5120 0 5120 0 0 5120 0 5120 -5120 0 -5120 0 0
-5120z m4923 2710 c67 -21 157 -68 157 -82 0 -4 -19 -32 -41 -62 l-41 -55 -39
19 c-94 49 -203 61 -304 35 -88 -23 -140 -51 -204 -110 -87 -81 -141 -201
-141 -312 0 -33 -4 -45 -17 -49 -161 -52 -301 -193 -340 -341 -18 -70 -14
-213 8 -258 l14 -30 208 -3 207 -2 0 -80 0 -80 -267 0 c-296 0 -306 -2 -336
-60 -23 -45 -15 -117 21 -183 35 -66 171 -209 263 -277 131 -97 312 -182 492
-230 l102 -27 3 -82 3 -82 -38 6 c-145 25 -363 108 -519 198 -128 74 -184 114
-272 198 -162 156 -231 295 -220 449 8 111 49 169 171 245 14 8 15 17 7 50
-17 71 -12 224 10 304 48 173 137 282 320 393 19 12 29 32 43 84 28 109 110
236 198 308 161 131 365 174 552 116z m742 5 c58 -13 175 -60 185 -74 3 -3 35
-30 71 -58 50 -40 76 -71 111 -130 51 -90 73 -141 82 -199 6 -34 13 -44 43
-58 54 -26 146 -99 190 -153 59 -71 90 -130 119 -224 23 -75 25 -96 20 -194
-3 -60 -8 -122 -11 -137 -6 -23 -3 -29 26 -44 44 -22 90 -60 111 -93 26 -38
49 -125 47 -174 -2 -64 -36 -171 -74 -236 -41 -70 -153 -192 -238 -259 -169
-134 -500 -282 -709 -317 l-38 -6 0 79 0 80 114 31 c257 71 440 169 600 320
189 181 247 348 142 412 -28 17 -52 19 -298 19 l-268 0 0 80 0 80 204 0 c151
0 206 3 214 13 13 15 32 118 32 172 0 64 -34 179 -70 235 -57 88 -148 160
-262 204 -34 13 -38 19 -38 50 0 55 -20 135 -50 201 -30 68 -121 159 -192 193
-58 28 -152 52 -206 52 -54 0 -152 -25 -203 -51 l-38 -19 -45 59 -45 60 22 14
c48 31 110 58 165 71 75 19 212 19 287 1z m-445 -307 c82 -57 92 -167 21 -247
-20 -23 -21 -35 -21 -212 l0 -187 -74 -7 c-41 -4 -79 -4 -85 -1 -7 5 -11 72
-11 198 l0 190 -29 34 c-60 68 -44 185 32 233 46 28 124 28 167 -1z m-606
-268 c54 -27 78 -62 84 -122 5 -48 7 -52 133 -171 71 -67 129 -127 129 -132 0
-6 -25 -35 -55 -65 l-55 -54 -37 34 c-21 19 -81 77 -135 128 -94 89 -98 92
-144 92 -40 0 -51 5 -84 38 -86 85 -66 199 45 256 40 21 71 20 119 -4z m1205
-17 c111 -85 55 -273 -82 -273 -42 0 -26 13 -254 -204 l-53 -50 -55 54 c-30
30 -55 60 -55 66 0 7 58 68 130 136 122 116 130 125 130 161 0 120 140 185
239 110z m-50 -662 c11 -7 12 -52 9 -237 l-4 -229 -41 -87 c-48 -101 -111
-174 -190 -219 -85 -49 -93 -69 -93 -230 0 -110 4 -150 21 -205 29 -95 92
-210 145 -264 l44 -46 0 -152 0 -152 -85 0 -85 0 0 114 0 114 -47 56 -47 56
-256 0 c-140 0 -260 -4 -266 -8 -5 -4 -27 -29 -47 -56 l-37 -49 0 -113 0 -114
-84 0 c-67 0 -85 3 -90 16 -3 9 -6 74 -6 144 l0 129 51 58 c65 74 92 120 131
224 29 77 32 96 35 229 5 175 -3 197 -87 246 -85 50 -146 117 -193 213 l-42
86 -3 228 c-2 126 -1 235 2 243 5 12 96 14 628 14 343 0 629 -4 637 -9z m-434
-1736 l0 -80 -197 -3 -196 -2 -4 69 c-5 111 -24 102 200 99 l197 -3 0 -80z
m-1765 -275 c5 -170 5 -174 22 -149 24 34 83 66 140 74 104 16 213 -50 237
-142 8 -31 16 -357 12 -500 l-1 -33 -105 0 -105 0 0 214 c0 200 -1 215 -20
239 -42 54 -147 41 -171 -20 -6 -16 -12 -113 -12 -228 l-2 -200 -107 -3 -108
-3 0 460 c0 423 1 460 17 463 9 2 57 3 107 3 l91 -1 5 -174z m2971 -11 l-2
-174 31 37 c36 44 105 72 175 72 62 0 110 -18 153 -58 54 -51 62 -97 62 -373
l0 -243 -105 0 -105 0 0 193 c0 205 -8 257 -43 282 -28 20 -87 19 -116 -1 -44
-31 -51 -69 -51 -279 l0 -195 -105 0 -105 0 0 460 0 459 88 3 c135 5 124 21
123 -183z m-3261 51 l0 -100 -135 0 -135 0 0 -345 0 -345 -105 0 -105 0 0 345
0 345 -135 0 -135 0 0 93 c0 52 3 97 7 100 3 4 172 7 375 7 l368 0 0 -100z
m4070 -45 l0 -85 70 0 71 0 -3 -82 -3 -83 -67 -3 -68 -3 0 -148 c0 -171 2
-174 77 -170 l48 3 7 -79 c8 -95 4 -100 -81 -111 -66 -8 -155 8 -190 34 -68
51 -80 95 -80 320 l-1 152 -50 0 -50 0 0 85 0 85 54 0 53 0 -5 69 c-7 104 -10
101 113 101 l105 0 0 -85z m-2811 -97 c73 -28 141 -96 172 -174 32 -80 32
-216 1 -287 -47 -104 -118 -166 -224 -193 -158 -41 -310 26 -386 169 -25 48
-27 61 -27 162 0 128 16 174 85 249 93 100 234 128 379 74z m1346 18 c26 -8
63 -30 81 -47 l34 -33 0 37 0 37 100 0 101 0 -3 -357 -3 -358 -28 -58 c-32
-65 -95 -119 -161 -140 -23 -6 -88 -12 -146 -12 -94 0 -111 3 -165 28 -74 35
-91 50 -121 109 -41 81 -38 84 71 92 l96 6 33 -35 c30 -31 39 -35 84 -35 28 0
62 5 76 12 37 16 66 83 66 152 l0 57 -32 -37 c-41 -46 -83 -64 -149 -64 -76 0
-125 18 -179 67 -139 125 -128 416 20 534 31 25 118 57 161 58 9 1 37 -6 64
-13z m-853 -118 c1 -62 3 -138 3 -168 3 -151 4 -160 30 -185 32 -33 105 -35
135 -5 36 36 40 66 40 271 l0 199 105 0 105 0 0 -330 0 -330 -105 0 -105 0 0
43 0 44 -44 -42 c-72 -70 -175 -84 -266 -37 -44 22 -59 36 -80 77 -25 48 -25
54 -28 312 l-3 263 105 0 106 0 2 -112z m-1754 -865 l-3 -108 -207 -3 -208 -2
0 -100 0 -100 190 0 191 0 -3 -102 -3 -103 -187 -3 -188 -2 -2 -183 -3 -182
-120 0 -120 0 -3 498 -2 497 335 0 336 0 -3 -107z m3643 87 c5 -8 46 -123 93
-255 46 -132 103 -292 126 -355 23 -63 50 -140 60 -170 11 -30 28 -81 39 -112
12 -32 21 -63 21 -70 0 -10 -29 -12 -125 -10 -105 3 -125 6 -125 19 0 8 -12
53 -26 99 l-26 84 -173 0 -172 0 -32 -100 -32 -100 -124 0 -124 0 25 68 c14
37 38 103 54 147 42 122 149 424 170 480 20 55 90 253 95 272 5 16 43 21 164
19 81 -1 106 -4 112 -16z m679 -475 l0 -495 -120 0 -120 0 0 488 c0 269 3 492
7 495 3 4 57 7 120 7 l113 0 0 -495z m-3844 244 c79 -14 166 -62 209 -115 129
-158 117 -415 -27 -550 -117 -110 -280 -130 -435 -54 -77 38 -133 100 -164
183 -20 51 -24 80 -23 167 0 91 3 112 26 161 50 110 135 179 250 204 80 17 91
17 164 4z m869 -110 l0 -114 -60 -5 c-75 -6 -124 -34 -150 -85 -18 -35 -20
-64 -23 -237 l-4 -198 -114 0 -114 0 0 370 0 370 115 0 114 0 3 -62 c3 -57 4
-60 15 -38 18 42 88 98 130 105 21 4 45 8 53 9 32 7 35 -2 35 -115z m435 101
c19 -5 49 -23 67 -39 l32 -29 3 32 3 31 115 0 115 0 3 -350 c2 -218 -1 -375
-8 -415 -31 -183 -159 -276 -380 -274 -131 0 -200 24 -270 93 -53 52 -93 137
-71 151 7 4 56 11 109 14 96 7 96 7 115 -19 27 -36 68 -55 124 -55 94 0 138
52 145 172 l4 67 -41 -38 c-54 -50 -101 -65 -184 -59 -114 8 -199 67 -247 170
-27 59 -29 71 -29 183 0 141 20 203 87 279 80 92 185 121 308 86z m922 0 c52
-14 127 -68 165 -118 39 -51 68 -141 78 -239 l7 -73 -246 0 -246 0 0 -31 c0
-45 56 -96 114 -104 55 -9 109 8 135 41 18 23 25 24 119 24 56 0 103 -4 106
-9 10 -16 -55 -131 -92 -161 -152 -125 -405 -107 -532 38 -100 113 -117 336
-35 475 83 143 250 204 427 157z"/>
<path d="M4677 6413 c-11 -10 -8 -213 4 -263 15 -69 84 -164 138 -191 70 -35
134 -105 160 -175 20 -52 22 -77 22 -209 -1 -113 -6 -168 -20 -223 -15 -55
-16 -74 -7 -78 6 -2 86 -3 176 -2 141 3 164 5 161 18 -2 8 -11 38 -19 65 -8
28 -16 113 -19 192 -5 124 -3 150 16 210 24 81 76 147 149 188 130 75 168 162
167 375 l0 95 -461 3 c-253 1 -464 -1 -467 -5z"/>
<path d="M4330 4282 c-87 -87 -51 -278 55 -298 72 -13 134 59 135 156 0 108
-43 170 -117 170 -36 0 -50 -6 -73 -28z"/>
<path d="M5811 4285 c-38 -33 -55 -84 -48 -147 11 -93 76 -141 154 -115 53 18
76 55 81 130 5 101 -37 157 -120 157 -25 0 -46 -8 -67 -25z"/>
<path d="M6729 3199 c-28 -90 -54 -170 -56 -176 -4 -10 22 -13 111 -13 64 0
116 2 116 4 0 8 -111 341 -115 344 -2 2 -27 -70 -56 -159z"/>
<path d="M3614 3141 c-46 -28 -68 -93 -62 -179 9 -118 56 -169 147 -159 75 8
111 65 111 177 0 75 -10 109 -45 146 -27 29 -39 34 -76 34 -26 0 -57 -8 -75
-19z"/>
<path d="M4968 3144 c-36 -19 -58 -64 -65 -128 -11 -107 37 -184 119 -193 87
-9 141 54 141 167 1 112 -44 171 -130 170 -21 -1 -50 -7 -65 -16z"/>
<path d="M5814 3181 c-31 -14 -74 -69 -74 -97 l0 -24 130 0 c119 0 129 1 124
18 -18 54 -28 73 -50 87 -29 19 -102 28 -130 16z"/>
</g>
</svg>
